
<svg width="17" height="18" viewBox="0 0 17 18" fill="none" xmlns="http://www.w3.org/2000/svg">
<path d="M6.88448 0.239746H9.74145C10.4982 0.239746 11.2244 0.542219 11.7608 1.07981C12.297 1.61945 12.5977 2.34944 12.5972 3.11018V5.02299H4.02874V3.11018C4.02874 2.34849 4.32999 1.61863 4.86514 1.07981C5.13009 0.813718 5.44496 0.602537 5.79169 0.45838C6.13842 0.314223 6.5102 0.239925 6.88571 0.239746M0.239868 5.02299H16.424V14.8393C16.424 15.5336 16.1497 16.201 15.6599 16.6921C15.17 17.1844 14.5075 17.4599 13.8157 17.4599H2.84824C2.50546 17.4594 2.16615 17.3913 1.84971 17.2595C1.53326 17.1278 1.24589 16.935 1.00401 16.6921C0.515 16.1994 0.240365 15.5335 0.239868 14.8393V5.02299Z" stroke="#1A1A1A" stroke-width="0.479721" stroke-linecap="round" stroke-linejoin="round"/>
</svg>
